<svg id="visual" viewBox="0 0 1920 1080" width="1920" height="1080" xmlns="http://www.w3.org/2000/svg" xmlns:xlink="http://www.w3.org/1999/xlink" version="1.1"><rect x="0" y="0" width="1920" height="1080" fill="#141414"></rect><defs><linearGradient id="grad1_0" x1="43.8%" y1="100%" x2="100%" y2="0%"><stop offset="14.444444444444446%" stop-color="#efefef" stop-opacity="1"></stop><stop offset="85.55555555555554%" stop-color="#efefef" stop-opacity="1"></stop></linearGradient></defs><defs><linearGradient id="grad1_1" x1="43.8%" y1="100%" x2="100%" y2="0%"><stop offset="14.444444444444446%" stop-color="#efefef" stop-opacity="1"></stop><stop offset="85.55555555555554%" stop-color="#b2b2b2" stop-opacity="1"></stop></linearGradient></defs><defs><linearGradient id="grad1_2" x1="43.8%" y1="100%" x2="100%" y2="0%"><stop offset="14.444444444444446%" stop-color="#787878" stop-opacity="1"></stop><stop offset="85.55555555555554%" stop-color="#b2b2b2" stop-opacity="1"></stop></linearGradient></defs><defs><linearGradient id="grad1_3" x1="43.8%" y1="100%" x2="100%" y2="0%"><stop offset="14.444444444444446%" stop-color="#787878" stop-opacity="1"></stop><stop offset="85.55555555555554%" stop-color="#434343" stop-opacity="1"></stop></linearGradient></defs><defs><linearGradient id="grad1_4" x1="43.8%" y1="100%" x2="100%" y2="0%"><stop offset="14.444444444444446%" stop-color="#141414" stop-opacity="1"></stop><stop offset="85.55555555555554%" stop-color="#434343" stop-opacity="1"></stop></linearGradient></defs><defs><linearGradient id="grad2_0" x1="0%" y1="100%" x2="56.3%" y2="0%"><stop offset="14.444444444444446%" stop-color="#efefef" stop-opacity="1"></stop><stop offset="85.55555555555554%" stop-color="#efefef" stop-opacity="1"></stop></linearGradient></defs><defs><linearGradient id="grad2_1" x1="0%" y1="100%" x2="56.3%" y2="0%"><stop offset="14.444444444444446%" stop-color="#b2b2b2" stop-opacity="1"></stop><stop offset="85.55555555555554%" stop-color="#efefef" stop-opacity="1"></stop></linearGradient></defs><defs><linearGradient id="grad2_2" x1="0%" y1="100%" x2="56.3%" y2="0%"><stop offset="14.444444444444446%" stop-color="#b2b2b2" stop-opacity="1"></stop><stop offset="85.55555555555554%" stop-color="#787878" stop-opacity="1"></stop></linearGradient></defs><defs><linearGradient id="grad2_3" x1="0%" y1="100%" x2="56.3%" y2="0%"><stop offset="14.444444444444446%" stop-color="#434343" stop-opacity="1"></stop><stop offset="85.55555555555554%" stop-color="#787878" stop-opacity="1"></stop></linearGradient></defs><defs><linearGradient id="grad2_4" x1="0%" y1="100%" x2="56.3%" y2="0%"><stop offset="14.444444444444446%" stop-color="#434343" stop-opacity="1"></stop><stop offset="85.55555555555554%" stop-color="#141414" stop-opacity="1"></stop></linearGradient></defs><g transform="translate(1920, 1080)"><path d="M-1026 0C-1003.1 -128.3 -980.2 -256.6 -936.8 -388C-893.4 -519.4 -829.4 -653.9 -725.5 -725.5C-621.6 -797.1 -477.7 -805.7 -350.2 -845.3C-222.6 -885 -111.3 -955.5 0 -1026L0 0Z" fill="#2b2b2b"></path><path d="M-820.8 0C-802.5 -102.7 -784.2 -205.3 -749.5 -310.4C-714.7 -415.6 -663.5 -523.1 -580.4 -580.4C-497.3 -637.7 -382.2 -644.6 -280.1 -676.3C-178.1 -708 -89 -764.4 0 -820.8L0 0Z" fill="#5d5d5d"></path><path d="M-615.6 0C-601.9 -77 -588.1 -154 -562.1 -232.8C-536 -311.7 -497.6 -392.3 -435.3 -435.3C-372.9 -478.2 -286.6 -483.4 -210.1 -507.2C-133.6 -531 -66.8 -573.3 0 -615.6L0 0Z" fill="#949494"></path><path d="M-410.4 0C-401.2 -51.3 -392.1 -102.7 -374.7 -155.2C-357.4 -207.8 -331.8 -261.6 -290.2 -290.2C-248.6 -318.8 -191.1 -322.3 -140.1 -338.1C-89 -354 -44.5 -382.2 0 -410.4L0 0Z" fill="#d0d0d0"></path><path d="M-205.2 0C-200.6 -25.7 -196 -51.3 -187.4 -77.6C-178.7 -103.9 -165.9 -130.8 -145.1 -145.1C-124.3 -159.4 -95.5 -161.1 -70 -169.1C-44.5 -177 -22.3 -191.1 0 -205.2L0 0Z" fill="#efefef"></path></g><g transform="translate(0, 0)"><path d="M1026 0C1022.3 145.7 1018.7 291.4 947.9 392.6C877.1 493.9 739.2 550.6 640.6 640.6C542.1 730.7 482.9 854.1 382.7 923.9C282.5 993.7 141.2 1009.8 0 1026L0 0Z" fill="#2b2b2b"></path><path d="M820.8 0C817.9 116.6 815 233.1 758.3 314.1C701.7 395.1 591.4 440.5 512.5 512.5C433.7 584.6 386.3 683.3 306.1 739.1C226 794.9 113 807.9 0 820.8L0 0Z" fill="#5d5d5d"></path><path d="M615.6 0C613.4 87.4 611.2 174.8 568.7 235.6C526.3 296.3 443.5 330.3 384.4 384.4C325.3 438.4 289.7 512.5 229.6 554.3C169.5 596.2 84.7 605.9 0 615.6L0 0Z" fill="#949494"></path><path d="M410.4 0C408.9 58.3 407.5 116.6 379.2 157.1C350.8 197.5 295.7 220.2 256.3 256.3C216.8 292.3 193.2 341.6 153.1 369.6C113 397.5 56.5 403.9 0 410.4L0 0Z" fill="#d0d0d0"></path><path d="M205.2 0C204.5 29.1 203.7 58.3 189.6 78.5C175.4 98.8 147.8 110.1 128.1 128.1C108.4 146.1 96.6 170.8 76.5 184.8C56.5 198.7 28.2 202 0 205.2L0 0Z" fill="#efefef"></path></g></svg>